<?xml version="1.0" standalone="no"?>
<!DOCTYPE svg PUBLIC "-//W3C//DTD SVG 20010904//EN"
 "http://www.w3.org/TR/2001/REC-SVG-20010904/DTD/svg10.dtd">
<svg version="1.0" xmlns="http://www.w3.org/2000/svg"
 width="460.000000pt" height="460.000000pt" viewBox="0 0 460.000000 460.000000"
 preserveAspectRatio="xMidYMid meet">
<metadata>
Created by potrace 1.14, written by Peter Selinger 2001-2017
</metadata>
<g transform="translate(0.000000,460.000000) scale(0.100000,-0.100000)"
fill="#000000" stroke="none">
<path d="M2601 4151 c-7 -5 -10 -14 -7 -20 4 -6 3 -11 -3 -11 -7 0 -7 -8 -1
-25 6 -16 6 -25 -1 -25 -6 0 -6 -7 1 -20 11 -21 1 -27 -17 -9 -12 12 -56 2
-48 -11 3 -5 -1 -11 -7 -13 -8 -3 -9 -6 -2 -6 12 -1 10 -54 -2 -73 -4 -7 -2
-8 5 -4 8 6 8 1 0 -18 -6 -13 -20 -27 -30 -29 -24 -6 -50 18 -43 38 4 8 1 15
-7 15 -7 0 -9 3 -6 6 3 4 2 15 -4 26 -9 16 -13 17 -26 6 -12 -10 -17 -10 -20
-1 -2 7 -10 10 -17 7 -8 -3 -16 4 -19 16 -3 11 -9 20 -14 19 -24 -4 -43 2 -37
12 3 6 0 15 -7 20 -8 5 -9 9 -3 9 7 0 9 10 7 25 -6 28 -20 28 -45 1 -11 -12
-18 -14 -18 -6 0 9 -3 10 -13 1 -8 -6 -17 -8 -20 -4 -4 3 -7 1 -7 -5 0 -7 -7
-12 -16 -12 -8 0 -12 -5 -8 -11 4 -6 -1 -9 -12 -7 -11 1 -29 -4 -41 -13 -13
-9 -33 -15 -45 -13 -13 1 -29 3 -35 3 -7 1 -13 7 -13 14 0 14 -45 21 -64 10
-21 -14 -39 -12 -63 7 -13 10 -32 16 -43 13 -12 -3 -22 1 -26 11 -3 9 -12 16
-20 16 -8 0 -24 10 -36 22 -24 24 -58 34 -58 17 0 -6 -8 -9 -17 -7 -10 1 -24
-1 -30 -5 -8 -5 -13 -3 -13 3 0 6 -4 9 -9 6 -5 -3 -12 1 -15 9 -8 23 -30 13
-36 -15 -6 -28 -46 -36 -44 -9 1 9 -5 16 -12 16 -8 0 -14 -5 -14 -11 -1 -6 -9
-1 -19 11 l-19 23 -4 -29 c-2 -16 -1 -38 3 -50 5 -11 4 -23 -2 -27 -6 -4 -6
-11 2 -20 9 -11 9 -14 -1 -14 -7 0 -10 -8 -7 -20 3 -11 1 -20 -4 -20 -5 0 -9
-5 -9 -11 0 -5 6 -7 13 -3 7 5 6 0 -3 -10 -8 -10 -15 -34 -16 -53 -2 -19 -8
-41 -14 -49 -7 -7 -8 -14 -3 -14 5 0 9 -9 9 -20 0 -11 -4 -20 -8 -20 -4 0 -7
-8 -7 -17 -2 -100 -9 -214 -14 -220 -4 -3 -2 -13 5 -20 9 -11 9 -19 1 -32 -6
-10 -10 -36 -9 -59 1 -23 -2 -42 -7 -42 -5 0 -7 -9 -4 -20 3 -11 0 -20 -6 -20
-8 0 -7 -3 1 -9 8 -4 14 -12 14 -16 0 -4 -6 -12 -14 -16 -7 -5 -8 -9 -2 -9 6
0 11 -7 11 -15 0 -8 -5 -15 -10 -15 -5 0 -7 -9 -4 -20 3 -11 0 -23 -5 -27 -7
-4 -8 -1 -3 8 5 8 4 10 0 6 -14 -12 -15 -37 -2 -37 7 0 5 -5 -3 -10 -10 -6
-11 -10 -2 -10 6 0 12 -5 12 -11 0 -5 -4 -8 -8 -5 -5 3 -9 -1 -9 -9 0 -8 5
-11 10 -8 6 4 8 0 4 -10 -4 -10 -1 -17 6 -17 7 0 4 -5 -5 -11 -11 -6 -15 -16
-11 -26 4 -11 3 -14 -5 -9 -7 4 -12 2 -12 -4 0 -6 -5 -8 -12 -4 -10 6 -10 4 0
-8 9 -11 10 -18 2 -23 -6 -3 -8 -10 -5 -15 3 -5 1 -18 -5 -29 -7 -14 -7 -22 2
-27 7 -5 8 -3 3 6 -5 9 -4 11 4 6 8 -6 9 -12 2 -20 -7 -9 -7 -17 2 -26 10 -10
9 -11 -3 -5 -12 6 -12 5 -3 -5 6 -7 9 -19 6 -26 -3 -8 0 -14 7 -14 10 0 10 -3
0 -15 -9 -11 -9 -15 -1 -15 7 0 9 -5 4 -12 -12 -21 -15 -61 -4 -53 7 3 8 0 5
-9 -3 -9 -11 -13 -18 -9 -6 4 -4 -2 4 -12 12 -15 12 -17 1 -10 -11 6 -13 4 -8
-8 3 -9 3 -19 -2 -21 -4 -3 -7 -15 -6 -28 1 -13 -3 -26 -8 -30 -12 -8 -19 -40
-7 -33 11 7 7 -22 -5 -32 -4 -4 -5 -2 0 6 6 10 4 12 -4 7 -7 -5 -10 -14 -7
-21 2 -7 -1 -18 -7 -25 -9 -10 -9 -11 1 -6 10 6 10 2 1 -18 -7 -14 -17 -22
-23 -19 -6 4 -5 -1 3 -11 9 -11 11 -20 5 -24 -12 -9 -12 -152 0 -171 7 -11 6
-12 -5 -6 -8 5 -7 0 4 -12 17 -20 23 -37 10 -30 -5 2 -16 -4 -25 -15 -10 -10
-15 -18 -12 -18 3 0 -8 -13 -25 -29 -16 -15 -27 -31 -24 -35 3 -3 -1 -6 -10
-6 -9 0 -19 -5 -23 -12 -5 -7 -2 -9 7 -4 8 4 6 1 -3 -7 -10 -8 -15 -17 -11
-21 4 -4 0 -4 -10 0 -12 4 -20 -1 -26 -17 -6 -14 -10 -17 -11 -9 0 13 -2 12
-10 -1 -5 -9 -23 -22 -40 -29 -16 -7 -27 -16 -24 -21 3 -5 0 -9 -6 -9 -6 0 -8
-4 -5 -10 3 -5 1 -10 -5 -10 -6 0 -9 -4 -5 -9 3 -6 -3 -14 -12 -20 -11 -6 -13
-11 -5 -11 7 0 1 -11 -13 -24 -15 -14 -27 -28 -28 -33 -1 -4 -6 -7 -10 -5 -4
1 -1 -11 7 -27 8 -15 12 -31 9 -35 -4 -3 -1 -6 5 -6 7 0 12 -11 12 -25 0 -14
-6 -25 -12 -25 -9 0 -8 -3 2 -10 12 -8 12 -10 -3 -16 -9 -3 -14 -10 -11 -15 3
-6 1 -16 -5 -23 -6 -7 -9 -22 -6 -34 2 -14 -1 -19 -9 -16 -9 4 -13 -3 -11 -20
2 -14 -1 -26 -6 -26 -6 0 -7 -5 -4 -10 4 -6 1 -18 -6 -26 -10 -13 -10 -17 2
-25 12 -7 11 -9 -3 -9 -9 0 -20 -5 -24 -12 -4 -6 -3 -8 3 -5 6 4 11 -4 11 -18
0 -14 -4 -23 -8 -20 -4 2 -6 -7 -4 -20 1 -14 -2 -27 -7 -31 -5 -3 -7 -10 -3
-15 3 -5 0 -17 -8 -26 -11 -14 -11 -16 2 -8 12 6 12 5 3 -5 -6 -7 -9 -19 -6
-26 3 -8 -1 -14 -8 -14 -11 0 -11 -3 1 -10 12 -8 12 -10 1 -10 -11 0 -11 -3 0
-17 12 -14 12 -16 0 -8 -11 6 -13 4 -8 -7 3 -9 1 -20 -5 -26 -8 -8 -8 -15 1
-26 9 -11 9 -15 -1 -20 -11 -5 -11 -7 0 -12 8 -4 10 -10 3 -18 -12 -14 3 -36
41 -60 18 -11 28 -14 28 -7 0 9 5 9 20 1 15 -8 20 -8 20 1 0 8 4 8 15 -1 11
-9 19 -9 28 -2 8 7 18 7 27 2 21 -13 33 -12 24 2 -5 7 -3 8 6 3 17 -11 69 -14
75 -5 3 5 15 6 27 3 14 -4 26 0 34 12 8 11 14 15 14 9 0 -5 6 2 13 16 52 98
53 100 52 137 -1 18 4 34 11 37 7 3 10 15 7 28 -4 18 -3 20 6 8 6 -8 11 -10
11 -4 0 5 -5 15 -11 21 -8 8 -7 13 2 18 8 6 10 4 4 -6 -6 -11 -5 -12 5 -2 10
9 10 15 2 26 -7 8 -9 17 -4 21 4 4 -1 12 -11 17 -23 14 -16 49 18 83 14 14 24
30 22 34 -3 4 1 12 8 19 18 17 28 -23 13 -51 -15 -26 -17 -67 -5 -83 6 -8 6
-13 0 -13 -11 0 -15 -47 -4 -54 10 -7 2 -56 -9 -56 -5 0 -6 -9 -3 -20 3 -12 0
-20 -7 -20 -7 0 -10 -8 -7 -20 3 -11 2 -20 -1 -20 -4 0 -6 -19 -6 -42 1 -24
-1 -47 -5 -53 -13 -19 -12 -67 2 -60 6 4 5 1 -3 -7 -8 -7 -14 -26 -14 -43 1
-16 -2 -40 -7 -52 -5 -14 -5 -23 1 -23 5 0 7 -7 4 -15 -4 -8 -10 -13 -15 -10
-4 3 -13 -4 -19 -15 -6 -11 -15 -18 -21 -15 -5 4 -9 1 -9 -5 0 -6 -6 -8 -12
-4 -7 4 -10 4 -6 -1 4 -4 3 -14 -3 -22 -6 -7 -8 -13 -4 -13 4 0 1 -8 -6 -17
-9 -11 -9 -14 -2 -10 9 6 11 -5 8 -43 -2 -30 0 -48 6 -45 5 4 9 0 9 -8 0 -9 9
-14 23 -13 20 1 22 -3 19 -40 -2 -23 1 -45 7 -49 6 -3 9 -11 6 -16 -3 -5 2 -6
11 -2 11 4 15 2 11 -4 -6 -10 55 -29 76 -25 4 1 7 -3 7 -8 0 -6 5 -10 11 -10
5 0 7 5 3 11 -3 6 8 4 24 -5 17 -9 42 -16 57 -16 14 0 25 -6 25 -12 0 -9 4 -8
10 2 9 13 10 13 10 0 0 -13 1 -13 10 0 5 8 10 10 10 4 0 -16 150 -18 150 -1 0
9 2 9 8 -1 9 -13 38 -12 61 2 10 6 12 5 7 -2 -10 -16 7 -15 23 0 12 11 13 10
7 -6 -7 -19 -6 -19 13 -2 15 13 20 14 24 4 4 -10 6 -10 6 1 1 11 4 11 16 1 13
-11 14 -10 10 3 -4 9 -1 15 7 14 35 -1 59 4 54 12 -3 4 6 7 19 5 14 -1 25 2
25 6 0 7 21 18 50 25 44 12 60 19 60 26 0 5 3 9 8 8 15 -2 52 14 52 23 0 6 7
8 15 4 8 -3 15 -1 15 5 0 6 4 8 9 4 5 -3 12 -1 16 5 4 6 11 8 16 5 5 -4 9 -2
9 3 0 11 49 27 65 22 6 -1 16 -3 23 -3 6 0 12 -4 12 -8 0 -8 40 -24 53 -21 4
1 10 -5 13 -13 4 -8 12 -15 20 -15 8 0 22 -9 31 -19 9 -11 22 -17 29 -14 8 3
14 0 14 -7 0 -6 5 -8 10 -5 6 3 10 3 10 -2 0 -14 94 -49 141 -52 11 0 18 -5
15 -10 -3 -5 1 -12 10 -15 8 -3 12 -2 9 3 -3 5 -1 12 5 16 5 3 10 -2 10 -12 0
-15 2 -16 10 -3 9 13 10 13 11 0 0 -10 3 -8 9 5 5 11 9 15 9 9 1 -14 51 -25
51 -11 0 5 6 5 13 -2 8 -6 16 -9 18 -6 3 2 39 5 82 6 48 1 77 6 77 13 0 6 4 5
9 -3 8 -13 12 -13 27 0 16 12 17 12 9 -1 -6 -12 -5 -13 6 -2 17 16 32 16 24
-1 -4 -6 -1 -5 7 3 7 9 21 14 31 12 9 -2 17 1 17 6 0 5 11 8 25 7 14 -2 25 0
25 4 0 4 6 8 13 8 33 1 78 30 70 45 -2 4 5 5 15 3 19 -3 21 15 8 91 -3 16 1
20 23 18 15 -1 28 3 29 10 1 19 13 69 18 77 2 4 0 10 -5 13 -5 3 -7 15 -4 26
4 13 -1 22 -13 27 -27 10 -44 29 -44 48 0 10 5 13 13 9 8 -5 8 -2 -2 9 -10 13
-10 17 -1 17 10 0 10 3 0 15 -9 11 -9 15 -1 15 8 0 9 5 1 19 -13 26 -13 34 2
25 7 -5 8 -3 2 7 -11 18 -13 32 -17 100 -2 30 -7 61 -12 69 -5 8 -4 11 2 7 6
-4 4 12 -4 36 -21 60 -23 76 -11 83 7 5 8 2 3 -7 -5 -8 -4 -11 0 -6 12 10 13
57 2 57 -5 0 -4 7 3 15 10 12 10 15 -1 15 -9 0 -10 3 -4 8 11 8 15 62 4 62 -4
0 -7 9 -6 20 1 11 2 20 2 20 10 0 63 -49 58 -53 -3 -4 -1 -7 5 -7 18 0 9 -33
-15 -60 -12 -12 -19 -28 -16 -33 11 -18 11 -67 0 -67 -6 0 3 -10 20 -22 16
-13 30 -25 31 -28 1 -9 26 -65 32 -70 3 -3 11 -16 18 -30 8 -16 23 -27 39 -28
14 -1 32 -7 39 -13 8 -6 14 -8 14 -3 0 5 20 9 45 10 24 0 42 -3 39 -8 -3 -4
-1 -8 5 -8 5 0 13 5 16 10 4 6 11 8 16 5 5 -4 9 -2 9 3 0 5 18 8 40 7 23 -1
43 2 46 7 3 4 10 6 15 3 5 -4 9 -1 9 5 0 6 4 9 9 6 5 -3 12 1 15 10 3 8 10 12
16 9 13 -8 13 1 0 25 -6 12 -7 21 0 25 6 4 6 15 0 31 -6 14 -6 23 -1 20 5 -4
6 9 1 29 -4 19 -5 35 -1 35 3 0 1 4 -6 8 -6 4 -13 29 -14 55 -2 32 -7 46 -15
43 -7 -3 -10 2 -7 15 8 29 -5 71 -20 62 -8 -5 -8 -2 1 9 11 14 10 18 -5 27
-12 7 -13 10 -4 11 11 0 11 3 1 15 -10 12 -10 15 1 15 9 0 10 3 4 8 -6 4 -17
26 -24 49 -8 23 -17 40 -21 38 -11 -7 -8 29 4 44 8 11 8 13 -1 7 -8 -4 -13 -1
-13 9 0 9 -4 14 -8 11 -4 -2 -8 15 -7 39 0 24 -3 41 -7 39 -5 -3 -9 0 -9 5 -1
6 -2 16 -3 21 0 6 -5 14 -11 18 -5 4 -11 16 -13 27 -2 11 -13 28 -25 38 -12
10 -16 16 -9 12 8 -4 12 2 12 21 0 22 -3 24 -14 15 -11 -9 -16 -9 -22 0 -5 8
-3 9 7 4 12 -8 12 -6 0 9 -8 9 -17 13 -20 8 -3 -6 -12 -4 -19 4 -7 8 -10 14
-7 14 3 0 -3 10 -14 22 -11 11 -18 26 -14 31 3 6 2 7 -4 4 -5 -3 -18 6 -29 21
-10 14 -27 34 -36 44 -10 10 -16 18 -13 18 3 0 0 6 -7 14 -7 8 -16 12 -20 9
-5 -2 -13 7 -19 21 -7 14 -17 22 -23 19 -7 -4 -6 -1 1 8 13 16 13 123 0 135
-4 4 -2 13 4 21 6 7 7 13 2 13 -5 0 -10 14 -11 32 -2 18 -10 41 -20 52 -16 20
-16 20 1 7 15 -12 17 -12 11 3 -3 9 -11 16 -16 16 -6 0 -8 7 -4 15 3 8 1 15
-5 15 -6 0 -7 4 -4 10 3 5 2 18 -4 28 -6 11 -6 24 0 35 8 13 7 17 -2 15 -16
-4 -19 24 -4 34 5 4 1 8 -10 8 -17 0 -17 2 -5 10 10 6 11 10 3 10 -7 0 -13 5
-13 11 0 5 6 7 13 3 9 -6 9 -5 0 8 -7 8 -9 19 -5 23 4 5 1 5 -5 1 -13 -7 -16
7 -15 82 0 22 -3 30 -11 25 -7 -4 -6 1 2 10 7 9 10 17 6 17 -4 0 -2 6 4 14 9
11 9 16 0 22 -8 5 -9 3 -4 -6 5 -9 4 -11 -4 -6 -9 6 -9 11 0 22 9 11 8 18 -2
31 -8 9 -9 14 -3 10 6 -3 11 0 11 8 0 8 -4 12 -9 9 -4 -3 -7 6 -6 20 1 15 6
26 11 26 5 0 1 7 -8 16 -9 10 -14 26 -11 36 2 11 2 17 -1 14 -7 -7 -33 19 -33
33 0 6 -4 11 -8 11 -12 0 -9 53 3 63 6 4 3 13 -8 21 -13 10 -15 15 -5 18 11 4
10 8 -1 21 -8 11 -9 17 -3 17 6 0 9 7 6 15 -4 8 -9 13 -13 11 -3 -2 -7 12 -8
32 -1 20 -7 38 -13 40 -5 2 -8 8 -4 13 3 5 1 9 -5 9 -5 0 -8 9 -6 20 2 11 0
18 -4 15 -14 -8 -20 21 -8 35 9 10 9 11 -2 5 -11 -6 -13 -4 -8 8 3 9 0 18 -9
21 -8 3 -13 9 -12 13 1 4 -6 25 -15 47 -9 21 -14 42 -11 47 3 5 0 9 -6 9 -7 0
-10 6 -7 14 3 8 -1 20 -9 27 -9 7 -13 21 -11 31 3 10 1 18 -4 18 -5 0 -9 10
-9 23 0 13 -6 29 -12 36 -8 9 -9 12 -1 7 8 -4 8 0 0 18 -7 13 -15 22 -18 20
-9 -5 -18 19 -25 65 -4 20 -8 43 -9 51 -2 8 -4 18 -4 23 -1 4 -8 7 -16 7 -8 0
-15 9 -15 20 0 11 -7 20 -15 20 -8 0 -15 5 -15 10 0 6 -7 10 -15 10 -8 0 -15
5 -15 11 0 6 -9 9 -19 6 -11 -3 -22 1 -25 9 -3 8 -19 13 -41 12 -20 -1 -40 4
-45 11 -5 9 -10 10 -14 2 -5 -7 -14 -6 -29 4 -14 9 -28 11 -36 6z"/>
</g>
</svg>
